<?xml version="1.0" standalone="no"?>
<!DOCTYPE svg PUBLIC "-//W3C//DTD SVG 20010904//EN"
 "http://www.w3.org/TR/2001/REC-SVG-20010904/DTD/svg10.dtd">
<svg version="1.0" xmlns="http://www.w3.org/2000/svg"
 width="1280.000000pt" height="1028.000000pt" viewBox="0 0 1280.000000 1028.000000"
 preserveAspectRatio="xMidYMid meet">
<g transform="translate(0.000000,1028.000000) scale(0.100000,-0.100000)"
fill="#f5c2e7" stroke="#000000" stroke-width="2" stroke-linecap="round" stroke-linejoin="round">
<path d="M11869 10276 c-2 -2 -56 -9 -119 -15 -177 -18 -402 -52 -425 -63 -11
-6 -1145 -756 -2520 -1666 -1375 -910 -2507 -1657 -2516 -1659 -10 -3 -71 72
-202 250 -103 140 -207 273 -233 296 -128 112 -342 100 -487 -29 -26 -23 -59
-62 -74 -87 -14 -25 -79 -212 -144 -416 -66 -204 -123 -375 -127 -379 -5 -5
-54 15 -111 47 -425 232 -906 380 -1381 425 -169 17 -501 14 -665 -5 -291 -34
-594 -107 -824 -199 -262 -106 -554 -276 -782 -457 -130 -102 -400 -372 -506
-504 -399 -500 -646 -1093 -718 -1727 -8 -73 -20 -172 -25 -219 -13 -109 -13
-225 0 -347 32 -294 43 -380 70 -512 197 -977 786 -1862 1600 -2407 490 -328
995 -515 1550 -573 58 -6 141 -15 184 -21 102 -12 255 -12 348 1 40 5 125 14
188 20 251 25 564 97 800 185 440 164 801 396 1141 734 352 351 592 744 754
1236 85 258 136 494 166 780 19 183 17 567 -5 773 -11 95 -17 175 -14 177 3 3
166 14 364 25 528 30 597 36 647 58 57 25 113 76 140 126 32 60 31 197 -2 281
-14 34 -124 209 -258 408 -129 191 -236 353 -239 361 -4 9 106 82 346 231
l351 217 425 -77 c457 -83 466 -83 492 -32 6 12 60 262 120 555 60 293 113
537 118 542 5 4 223 -32 484 -81 261 -50 487 -88 501 -85 40 8 512 319 526
347 6 13 57 245 114 514 56 270 107 496 113 502 9 10 78 4 326 -27 173 -22
329 -40 345 -40 23 0 100 51 333 216 167 119 309 226 316 238 8 11 57 210 111
441 96 416 307 1259 325 1303 7 17 6 31 -5 51 -34 67 -245 190 -395 230 -109
30 -329 61 -430 61 -47 0 -89 -2 -91 -4z m-9575 -6842 c223 -57 408 -237 477
-464 30 -96 32 -261 5 -360 -51 -185 -173 -337 -338 -420 -110 -55 -204 -74
-341 -68 -177 8 -304 65 -432 194 -83 84 -127 155 -166 266 -59 172 -47 335
36 503 141 286 451 428 759 349z"/>
</g>
</svg>
